<svg xmlns="http://www.w3.org/2000/svg" xmlns:xlink="http://www.w3.org/1999/xlink" width="500" zoomAndPan="magnify" viewBox="0 0 375 374.999991" height="500" preserveAspectRatio="xMidYMid meet" version="1.0"><defs><clipPath id="0ba641fc91"><path d="M 191 48 L 276 48 L 276 169 L 191 169 Z M 191 48 " clip-rule="nonzero"/></clipPath><clipPath id="c1453e79f1"><path d="M 116.699219 142.347656 L 233.539062 25.507812 L 350.382812 142.347656 L 233.539062 259.191406 Z M 116.699219 142.347656 " clip-rule="nonzero"/></clipPath><clipPath id="39d2de45d5"><path d="M 116.699219 142.347656 L 233.539062 25.507812 L 350.382812 142.347656 L 233.539062 259.191406 Z M 116.699219 142.347656 " clip-rule="nonzero"/></clipPath><clipPath id="505c053fd6"><path d="M 191 115 L 276 115 L 276 237 L 191 237 Z M 191 115 " clip-rule="nonzero"/></clipPath><clipPath id="f37946bae6"><path d="M 116.699219 142.347656 L 233.539062 25.507812 L 350.382812 142.347656 L 233.539062 259.191406 Z M 116.699219 142.347656 " clip-rule="nonzero"/></clipPath><clipPath id="330c340a3f"><path d="M 116.699219 142.347656 L 233.539062 25.507812 L 350.382812 142.347656 L 233.539062 259.191406 Z M 116.699219 142.347656 " clip-rule="nonzero"/></clipPath><clipPath id="33b4a46c1f"><path d="M 360 37 L 371.242188 37 L 371.242188 339 L 360 339 Z M 360 37 " clip-rule="nonzero"/></clipPath><clipPath id="4778954484"><path d="M 2.992188 37 L 14 37 L 14 339 L 2.992188 339 Z M 2.992188 37 " clip-rule="nonzero"/></clipPath><clipPath id="ddb517ffa7"><path d="M 36 3.777344 L 338 3.777344 L 338 15 L 36 15 Z M 36 3.777344 " clip-rule="nonzero"/></clipPath><clipPath id="e1052ec43c"><path d="M 36 361 L 338 361 L 338 372.027344 L 36 372.027344 Z M 36 361 " clip-rule="nonzero"/></clipPath><clipPath id="aa98ce0b3e"><path d="M 337 3.777344 L 371.242188 3.777344 L 371.242188 38 L 337 38 Z M 337 3.777344 " clip-rule="nonzero"/></clipPath><clipPath id="3f6d956651"><path d="M 2.992188 3.777344 L 37 3.777344 L 37 38 L 2.992188 38 Z M 2.992188 3.777344 " clip-rule="nonzero"/></clipPath><clipPath id="0737a861fc"><path d="M 337 338 L 371.242188 338 L 371.242188 372.027344 L 337 372.027344 Z M 337 338 " clip-rule="nonzero"/></clipPath><clipPath id="dd45055f4b"><path d="M 2.992188 338 L 37 338 L 37 372.027344 L 2.992188 372.027344 Z M 2.992188 338 " clip-rule="nonzero"/></clipPath><clipPath id="d3a2bbdf8a"><path d="M 34.613281 364.574219 L 44.453125 364.574219 L 44.453125 370.457031 L 34.613281 370.457031 Z M 34.613281 364.574219 " clip-rule="nonzero"/></clipPath><clipPath id="95e038f423"><path d="M 37.25 364.605469 C 43.238281 364.972656 43.699219 365.25 43.972656 365.800781 C 44.34375 366.445312 44.617188 367.734375 44.25 368.382812 C 43.882812 369.210938 42.222656 370.222656 41.394531 370.128906 C 40.566406 370.128906 39.554688 369.394531 39.183594 368.65625 C 38.816406 368.011719 38.816406 366.722656 39.183594 366.078125 C 39.554688 365.34375 40.566406 364.695312 41.394531 364.605469 C 42.132812 364.511719 43.328125 364.972656 43.789062 365.527344 C 44.34375 366.171875 44.617188 367.367188 44.34375 368.105469 C 44.066406 368.933594 42.777344 369.855469 41.671875 370.222656 C 40.289062 370.589844 37.804688 370.5 36.605469 370.128906 C 35.871094 369.855469 35.226562 369.578125 34.949219 368.933594 C 34.578125 368.195312 34.488281 366.539062 34.949219 365.800781 C 35.316406 365.066406 37.25 364.605469 37.25 364.605469 " clip-rule="nonzero"/></clipPath><clipPath id="94b80a251c"><path d="M 26.898438 362.65625 L 42.601562 362.65625 L 42.601562 369.140625 L 26.898438 369.140625 Z M 26.898438 362.65625 " clip-rule="nonzero"/></clipPath><clipPath id="7d87736f37"><path d="M 39.921875 368.382812 C 27.488281 367.828125 26.9375 366.445312 26.9375 365.617188 C 26.9375 364.972656 27.304688 364.238281 27.855469 363.777344 C 28.316406 363.316406 28.960938 363.039062 29.699219 363.039062 C 30.894531 362.855469 33.566406 363.039062 34.488281 363.867188 C 35.316406 364.605469 35.777344 366.355469 35.59375 367.277344 C 35.316406 368.011719 34.304688 368.933594 33.566406 369.027344 C 32.644531 369.210938 30.804688 368.472656 30.34375 367.734375 C 29.882812 367 29.882812 365.710938 30.25 364.972656 C 30.621094 364.238281 31.632812 363.40625 32.460938 363.40625 C 33.382812 363.316406 35.132812 364.238281 35.5 365.066406 C 35.871094 365.988281 35.226562 367.828125 34.671875 368.472656 C 34.210938 369.027344 33.660156 369.117188 32.921875 369.117188 C 31.726562 369.210938 28.871094 368.933594 27.949219 368.105469 C 27.210938 367.550781 26.84375 366.355469 26.9375 365.617188 C 26.9375 364.972656 27.210938 364.238281 27.855469 363.777344 C 28.777344 363.039062 31.171875 362.949219 33.199219 362.855469 C 35.683594 362.761719 40.289062 362.300781 41.578125 363.316406 C 42.5 364.050781 42.777344 365.617188 42.5 366.445312 C 42.222656 367.277344 39.921875 368.382812 39.921875 368.382812 " clip-rule="nonzero"/></clipPath><clipPath id="ca4cb7c5e4"><path d="M 24.285156 361.496094 L 45.441406 361.496094 L 45.441406 369.304688 L 24.285156 369.304688 Z M 24.285156 361.496094 " clip-rule="nonzero"/></clipPath><clipPath id="6cc89df3f3"><path d="M 39.921875 369.117188 C 31.082031 368.195312 30.25 367 30.066406 366.171875 C 29.882812 365.527344 30.25 364.789062 30.621094 364.238281 C 30.988281 363.683594 31.449219 363.316406 32.277344 363.132812 C 34.121094 362.488281 40.015625 362.300781 42.039062 363.222656 C 43.238281 363.777344 44.15625 364.789062 44.25 365.710938 C 44.34375 366.632812 43.605469 368.195312 42.683594 368.75 C 41.394531 369.394531 37.804688 368.839844 36.421875 368.195312 C 35.5 367.734375 34.671875 367 34.488281 366.171875 C 34.304688 365.25 34.855469 363.59375 35.683594 362.949219 C 36.699219 362.117188 39.738281 361.75 41.117188 362.300781 C 42.132812 362.671875 43.238281 363.960938 43.421875 364.882812 C 43.511719 365.800781 42.777344 367.367188 41.761719 367.921875 C 40.566406 368.65625 37.160156 368.289062 35.777344 367.644531 C 34.765625 367.277344 33.933594 366.445312 33.660156 365.710938 C 33.382812 365.066406 33.476562 364.144531 33.75 363.5 C 34.027344 362.855469 34.488281 362.210938 35.226562 361.933594 C 36.328125 361.472656 38.449219 361.84375 39.921875 361.933594 C 41.210938 362.117188 42.59375 362.210938 43.511719 362.578125 C 44.15625 362.949219 44.800781 363.5 45.078125 364.144531 C 45.355469 364.882812 45.355469 366.261719 44.988281 367 C 44.710938 367.644531 44.25 368.105469 43.328125 368.472656 C 40.75 369.394531 30.34375 369.578125 27.304688 368.65625 C 25.921875 368.289062 24.910156 367.550781 24.542969 366.816406 C 24.171875 366.171875 24.265625 365.25 24.542969 364.695312 C 24.816406 363.960938 25.738281 362.949219 26.566406 362.855469 C 27.488281 362.671875 29.238281 363.316406 29.792969 364.050781 C 30.25 364.695312 30.34375 366.078125 30.066406 366.816406 C 29.792969 367.550781 28.777344 368.472656 27.949219 368.65625 C 27.121094 368.839844 25.832031 368.472656 25.277344 367.828125 C 24.632812 367.277344 24.265625 365.988281 24.359375 365.25 C 24.542969 364.421875 25.277344 363.316406 26.015625 363.039062 C 26.84375 362.671875 28.132812 362.761719 28.871094 363.132812 C 29.515625 363.59375 30.160156 364.789062 30.25 365.527344 C 30.34375 366.171875 30.160156 366.90625 29.792969 367.367188 C 29.238281 368.011719 28.132812 368.75 27.304688 368.65625 C 26.382812 368.65625 24.910156 367.550781 24.542969 366.816406 C 24.171875 366.171875 24.265625 365.25 24.542969 364.695312 C 24.726562 364.050781 25.003906 363.5 25.921875 363.039062 C 28.316406 361.933594 39.738281 361.289062 42.777344 362.394531 C 44.15625 362.949219 44.988281 363.960938 45.355469 364.882812 C 45.539062 365.527344 45.355469 366.445312 44.988281 367 C 44.617188 367.644531 44.15625 368.195312 43.328125 368.382812 C 41.578125 368.933594 35.871094 368.289062 34.488281 367 C 33.566406 366.171875 33.289062 364.421875 33.75 363.5 C 34.210938 362.578125 35.960938 361.75 37.34375 361.566406 C 38.816406 361.382812 41.488281 362.027344 42.40625 362.949219 C 43.144531 363.777344 43.511719 365.433594 43.238281 366.355469 C 42.960938 367.089844 41.117188 368.195312 41.117188 368.195312 C 41.027344 368.105469 43.238281 366.171875 43.054688 365.894531 C 42.867188 365.617188 38.539062 368.382812 37.160156 368.382812 C 36.328125 368.382812 35.59375 368.011719 35.226562 367.460938 C 34.671875 366.722656 34.304688 364.882812 34.765625 364.050781 C 35.132812 363.222656 36.515625 362.488281 37.710938 362.394531 C 39.277344 362.210938 42.222656 362.949219 43.238281 363.867188 C 43.972656 364.511719 44.25 365.710938 44.25 366.445312 C 44.15625 367.089844 43.972656 367.828125 43.238281 368.289062 C 41.671875 369.300781 35.132812 369.484375 32.921875 368.75 C 31.632812 368.382812 30.621094 367.734375 30.25 366.90625 C 29.882812 366.171875 30.160156 364.882812 30.621094 364.238281 C 30.988281 363.683594 31.449219 363.316406 32.277344 363.132812 C 34.027344 362.578125 39.460938 362.949219 41.117188 363.59375 C 41.949219 363.867188 42.316406 364.328125 42.683594 364.882812 C 42.960938 365.433594 43.144531 366.261719 42.960938 366.816406 C 42.867188 367.460938 42.40625 368.195312 41.855469 368.566406 C 41.394531 368.933594 39.921875 369.117188 39.921875 369.117188 " clip-rule="nonzero"/></clipPath><clipPath id="51cbd7697c"><path d="M 28.558594 361.070312 L 45 361.070312 L 45 367.625 L 28.558594 367.625 Z M 28.558594 361.070312 " clip-rule="nonzero"/></clipPath><clipPath id="aa60babe7a"><path d="M 42.222656 367.183594 C 29.238281 366.261719 28.960938 365.710938 28.777344 365.15625 C 28.59375 364.605469 28.5 363.777344 28.777344 363.222656 C 29.238281 362.488281 30.34375 361.75 31.449219 361.472656 C 33.015625 361.105469 36.238281 361.382812 37.527344 362.300781 C 38.449219 362.949219 39.277344 364.421875 39.09375 365.25 C 38.910156 366.171875 37.433594 367.367188 36.605469 367.550781 C 35.871094 367.734375 34.671875 367.183594 34.210938 366.539062 C 33.660156 365.988281 33.476562 364.789062 33.660156 364.050781 C 33.84375 363.316406 34.671875 362.300781 35.5 362.117188 C 36.328125 361.933594 38.171875 362.488281 38.632812 363.222656 C 39.183594 363.960938 39 365.894531 38.449219 366.632812 C 37.988281 367.277344 36.972656 367.460938 35.960938 367.550781 C 34.488281 367.734375 31.265625 367.550781 30.066406 366.632812 C 29.144531 365.988281 28.59375 364.695312 28.59375 363.867188 C 28.6875 363.222656 29.144531 362.578125 29.605469 362.117188 C 30.066406 361.75 30.527344 361.65625 31.449219 361.472656 C 33.660156 361.105469 41.488281 360.644531 43.511719 361.933594 C 44.527344 362.578125 44.988281 363.960938 44.988281 364.789062 C 44.988281 365.433594 44.527344 366.078125 44.066406 366.539062 C 43.605469 366.90625 42.222656 367.183594 42.222656 367.183594 " clip-rule="nonzero"/></clipPath><clipPath id="235fad4000"><path d="M 25.308594 363.292969 L 47.449219 363.292969 L 47.449219 372.136719 L 25.308594 372.136719 Z M 25.308594 363.292969 " clip-rule="nonzero"/></clipPath><clipPath id="ac05daa465"><path d="M 44.710938 370.5 C 26.9375 370.128906 26.566406 369.855469 26.199219 369.300781 C 25.832031 368.839844 25.648438 368.011719 25.738281 367.367188 C 25.832031 366.816406 26.199219 366.078125 26.660156 365.617188 C 27.121094 365.25 27.582031 365.066406 28.5 364.972656 C 30.894531 364.511719 39.09375 363.867188 41.578125 364.695312 C 42.683594 365.066406 43.328125 365.710938 43.699219 366.355469 C 43.972656 367 44.066406 367.828125 43.789062 368.382812 C 43.421875 369.210938 42.5 369.945312 41.210938 370.5 C 38.449219 371.511719 29.515625 372.433594 27.121094 371.234375 C 26.015625 370.683594 25.460938 369.300781 25.371094 368.472656 C 25.277344 367.734375 25.738281 367 26.199219 366.539062 C 26.660156 366.078125 27.121094 365.894531 28.042969 365.617188 C 30.710938 365.066406 41.210938 364.605469 43.972656 365.617188 C 45.078125 366.078125 45.722656 366.722656 46 367.460938 C 46.277344 368.195312 46.09375 369.484375 45.632812 370.128906 C 45.261719 370.777344 44.433594 371.144531 43.328125 371.421875 C 41.210938 371.878906 35.960938 371.972656 33.84375 371.421875 C 32.738281 371.144531 31.910156 370.777344 31.449219 370.128906 C 30.988281 369.484375 30.894531 368.195312 31.082031 367.460938 C 31.265625 366.816406 31.726562 366.261719 32.460938 365.894531 C 34.210938 364.972656 40.382812 364.421875 42.5 364.605469 C 43.421875 364.695312 43.972656 364.882812 44.433594 365.25 C 44.988281 365.710938 45.449219 366.445312 45.539062 367.089844 C 45.632812 367.734375 45.449219 368.566406 45.078125 369.117188 C 44.800781 369.671875 44.34375 370.128906 43.421875 370.40625 C 40.84375 371.234375 29.332031 370.960938 26.9375 369.484375 C 26.015625 368.933594 25.648438 367.921875 25.648438 367.183594 C 25.554688 366.539062 25.648438 365.800781 26.199219 365.25 C 27.210938 364.328125 30.160156 363.960938 32.371094 363.683594 C 34.949219 363.40625 39.183594 363.039062 40.84375 363.683594 C 41.855469 364.144531 42.5 364.882812 42.777344 365.617188 C 42.960938 366.355469 42.683594 367.644531 42.222656 368.289062 C 41.761719 368.839844 40.566406 369.394531 39.738281 369.300781 C 39 369.210938 37.894531 368.472656 37.527344 367.828125 C 37.160156 367.089844 37.066406 365.800781 37.433594 365.15625 C 37.804688 364.421875 38.910156 363.683594 39.644531 363.59375 C 40.566406 363.59375 42.222656 364.511719 42.683594 365.34375 C 43.054688 366.078125 42.777344 367.367188 42.40625 368.011719 C 42.132812 368.566406 41.761719 368.839844 40.933594 369.117188 C 38.722656 369.945312 29.144531 370.867188 26.9375 369.484375 C 25.921875 368.839844 25.554688 367.367188 25.648438 366.539062 C 25.738281 365.710938 26.292969 364.882812 27.304688 364.421875 C 29.792969 363.222656 39.828125 364.144531 42.5 364.605469 C 43.421875 364.789062 43.972656 364.882812 44.433594 365.25 C 44.988281 365.710938 45.539062 366.355469 45.539062 367.089844 C 45.539062 367.921875 45.078125 369.394531 44.066406 370.128906 C 42.316406 371.421875 36.054688 371.789062 33.84375 371.421875 C 32.738281 371.234375 31.816406 370.867188 31.449219 370.128906 C 30.988281 369.394531 30.988281 367.550781 31.449219 366.816406 C 31.816406 366.078125 32.738281 365.800781 33.84375 365.527344 C 36.144531 364.972656 42.683594 364.882812 44.617188 365.894531 C 45.539062 366.445312 46 367.367188 46.183594 368.105469 C 46.277344 368.75 46.09375 369.578125 45.632812 370.128906 C 45.171875 370.683594 44.527344 371.050781 43.328125 371.421875 C 40.382812 372.066406 29.699219 372.710938 27.121094 371.234375 C 25.921875 370.589844 25.460938 369.300781 25.371094 368.472656 C 25.277344 367.734375 25.738281 367 26.199219 366.539062 C 26.660156 366.078125 27.121094 365.894531 28.042969 365.617188 C 30.527344 364.972656 39.183594 364.144531 41.578125 364.695312 C 42.5 364.972656 42.960938 365.25 43.328125 365.800781 C 43.789062 366.445312 44.066406 367.644531 43.789062 368.382812 C 43.511719 369.300781 42.5 370.039062 41.210938 370.5 C 38.539062 371.328125 30.066406 371.144531 27.855469 370.5 C 26.9375 370.222656 26.566406 369.855469 26.199219 369.300781 C 25.832031 368.839844 25.648438 368.011719 25.738281 367.367188 C 25.832031 366.816406 26.199219 366.078125 26.660156 365.617188 C 27.121094 365.25 27.582031 365.066406 28.5 364.972656 C 31.265625 364.421875 42.59375 364.238281 45.171875 364.972656 C 46.09375 365.25 46.460938 365.617188 46.828125 366.078125 C 47.195312 366.632812 47.472656 367.367188 47.382812 368.011719 C 47.289062 368.566406 47.011719 369.300781 46.550781 369.761719 C 46.09375 370.222656 44.710938 370.5 44.710938 370.5 " clip-rule="nonzero"/></clipPath><clipPath id="8a3763cd41"><path d="M 6.523438 323.492188 L 12.785156 323.492188 L 12.785156 354.59375 L 6.523438 354.59375 Z M 6.523438 323.492188 " clip-rule="nonzero"/></clipPath><clipPath id="fd5923c491"><path d="M 12.753906 326.015625 C 11.832031 354.015625 10.726562 354.476562 9.992188 354.476562 C 9.53125 354.566406 8.976562 354.289062 8.609375 353.921875 C 8.148438 353.460938 7.6875 352.449219 7.78125 351.804688 C 7.78125 351.25 8.054688 350.699219 8.425781 350.421875 C 8.886719 349.960938 9.992188 349.59375 10.542969 349.6875 C 11.097656 349.6875 11.648438 349.960938 11.925781 350.421875 C 12.386719 350.882812 12.753906 351.988281 12.570312 352.632812 C 12.292969 353.371094 11.003906 354.382812 10.265625 354.566406 C 9.804688 354.660156 9.160156 354.382812 8.792969 354.105469 C 8.332031 353.738281 7.964844 353.183594 7.6875 352.082031 C 6.765625 348.304688 5.753906 329.332031 7.597656 325.558594 C 8.332031 324.175781 9.53125 323.4375 10.449219 323.53125 C 11.28125 323.621094 12.753906 326.015625 12.753906 326.015625 " clip-rule="nonzero"/></clipPath><clipPath id="3c8870812b"><path d="M 7.351562 325.738281 L 14.042969 325.738281 L 14.042969 362.875 L 7.351562 362.875 Z M 7.351562 325.738281 " clip-rule="nonzero"/></clipPath><clipPath id="e76818556a"><path d="M 14.042969 328.042969 C 14.042969 348.394531 13.398438 357.972656 12.199219 360.738281 C 11.832031 361.75 11.371094 362.300781 10.820312 362.578125 C 10.359375 362.855469 9.714844 362.949219 9.253906 362.761719 C 8.609375 362.488281 7.503906 361.289062 7.410156 360.460938 C 7.320312 359.816406 7.871094 358.804688 8.332031 358.433594 C 8.703125 358.066406 9.347656 357.882812 9.804688 357.972656 C 10.449219 357.972656 11.464844 358.527344 11.832031 358.988281 C 12.109375 359.449219 12.386719 360 12.199219 360.554688 C 12.109375 361.199219 11.097656 362.488281 10.265625 362.761719 C 9.621094 362.949219 8.609375 362.488281 8.148438 362.117188 C 7.6875 361.75 7.503906 361.472656 7.410156 360.738281 C 7.042969 358.617188 8.976562 352.449219 9.347656 347.660156 C 9.714844 341.765625 7.503906 331.082031 8.886719 327.949219 C 9.53125 326.660156 10.636719 325.742188 11.554688 325.742188 C 12.386719 325.742188 14.042969 328.042969 14.042969 328.042969 " clip-rule="nonzero"/></clipPath><clipPath id="5356521610"><path d="M 3.941406 329.667969 L 10.390625 329.667969 L 10.390625 355.71875 L 3.941406 355.71875 Z M 3.941406 329.667969 " clip-rule="nonzero"/></clipPath><clipPath id="a18fcdcb3b"><path d="M 10.359375 332.28125 C 9.4375 355.027344 8.242188 355.578125 7.410156 355.671875 C 6.859375 355.671875 6.308594 355.394531 5.847656 355.027344 C 5.386719 354.472656 4.925781 353.371094 4.925781 352.726562 C 5.015625 352.171875 5.292969 351.527344 5.664062 351.160156 C 6.214844 350.699219 7.320312 350.238281 8.054688 350.421875 C 8.792969 350.515625 9.714844 351.34375 9.992188 351.894531 C 10.265625 352.449219 10.359375 353.09375 10.175781 353.554688 C 9.898438 354.289062 8.515625 355.488281 7.6875 355.671875 C 7.136719 355.765625 6.492188 355.578125 6.121094 355.210938 C 5.570312 354.75 5.203125 354.105469 4.925781 353 C 4.097656 349.59375 3.269531 335.042969 4.925781 331.820312 C 5.664062 330.4375 6.953125 329.609375 7.871094 329.699219 C 8.703125 329.699219 10.359375 332.28125 10.359375 332.28125 " clip-rule="nonzero"/></clipPath><clipPath id="e410d2a7d4"><path d="M 322.570312 361.425781 L 351.878906 361.425781 L 351.878906 369.070312 L 322.570312 369.070312 Z M 322.570312 361.425781 " clip-rule="nonzero"/></clipPath><clipPath id="a5cb2a5e1e"><path d="M 349.175781 367.367188 C 328.085938 367.921875 328.363281 366.816406 327.996094 366.816406 C 327.628906 366.722656 326.984375 368.472656 326.429688 368.75 C 325.878906 369.027344 325.234375 369.117188 324.679688 368.933594 C 324.035156 368.65625 323.023438 367.828125 322.746094 367.183594 C 322.5625 366.632812 322.46875 365.988281 322.746094 365.433594 C 323.113281 364.695312 324.496094 363.59375 325.417969 363.59375 C 326.152344 363.5 327.257812 364.144531 327.628906 364.789062 C 327.996094 365.433594 328.085938 366.632812 327.8125 367.367188 C 327.535156 368.011719 326.523438 368.75 325.878906 368.933594 C 325.234375 369.117188 324.589844 369.027344 324.128906 368.65625 C 323.484375 368.195312 322.378906 366.632812 322.652344 365.710938 C 323.023438 364.605469 325.691406 363.59375 327.535156 362.949219 C 329.746094 362.300781 332.140625 362.300781 335.085938 362.117188 C 339.324219 361.84375 347.980469 360.738281 350.28125 362.117188 C 351.386719 362.761719 351.847656 364.050781 351.847656 364.882812 C 351.847656 365.527344 351.386719 366.171875 350.925781 366.632812 C 350.558594 367 349.175781 367.367188 349.175781 367.367188 " clip-rule="nonzero"/></clipPath><clipPath id="526a446220"><path d="M 326.230469 361.539062 L 350.800781 361.539062 L 350.800781 367.976562 L 326.230469 367.976562 Z M 326.230469 361.539062 " clip-rule="nonzero"/></clipPath><clipPath id="affc3e2ba0"><path d="M 348.074219 367.734375 C 327.074219 367.277344 326.523438 366.632812 326.335938 365.894531 C 326.152344 365.066406 326.890625 363.316406 327.628906 362.761719 C 328.179688 362.394531 329.46875 362.300781 330.207031 362.671875 C 330.941406 363.132812 331.863281 364.695312 331.679688 365.617188 C 331.585938 366.445312 330.207031 367.734375 329.285156 367.921875 C 328.546875 368.011719 327.441406 367.550781 326.890625 366.90625 C 326.429688 366.355469 326.0625 365.15625 326.335938 364.421875 C 326.613281 363.59375 327.628906 362.855469 329.007812 362.394531 C 332.417969 361.199219 345.679688 361.382812 348.53125 362.210938 C 349.453125 362.488281 349.820312 362.855469 350.191406 363.316406 C 350.558594 363.777344 350.835938 364.605469 350.742188 365.25 C 350.652344 365.800781 350.375 366.539062 349.914062 367 C 349.453125 367.460938 348.074219 367.734375 348.074219 367.734375 " clip-rule="nonzero"/></clipPath><clipPath id="3ecbb9f07a"><path d="M 316.632812 361.066406 L 347.585938 361.066406 L 347.585938 367.117188 L 316.632812 367.117188 Z M 316.632812 361.066406 " clip-rule="nonzero"/></clipPath><clipPath id="6c56c6963e"><path d="M 344.847656 367.089844 C 317.679688 366.632812 317.40625 366.355469 317.128906 365.894531 C 316.761719 365.25 316.574219 364.144531 316.851562 363.5 C 317.21875 362.761719 318.695312 361.75 319.523438 361.84375 C 320.351562 361.933594 321.550781 363.222656 321.824219 363.960938 C 321.917969 364.695312 321.550781 365.800781 320.996094 366.261719 C 320.351562 366.816406 318.695312 367 317.957031 366.632812 C 317.3125 366.261719 316.761719 365.25 316.667969 364.605469 C 316.574219 364.050781 316.761719 363.40625 317.128906 362.949219 C 317.496094 362.488281 318.050781 362.117188 319.246094 361.84375 C 323.023438 360.921875 340.980469 360.828125 344.847656 361.75 C 346.046875 362.027344 346.597656 362.300781 347.058594 362.855469 C 347.425781 363.40625 347.703125 364.144531 347.519531 364.789062 C 347.242188 365.527344 344.847656 367.089844 344.847656 367.089844 " clip-rule="nonzero"/></clipPath><clipPath id="a8c1bf9acf"><path d="M 318.660156 364.394531 L 352.148438 364.394531 L 352.148438 371.175781 L 318.660156 371.175781 Z M 318.660156 364.394531 " clip-rule="nonzero"/></clipPath><clipPath id="f78d845399"><path d="M 349.453125 371.144531 C 319.339844 369.671875 318.96875 368.933594 318.785156 368.382812 C 318.601562 367.828125 318.601562 367.183594 318.96875 366.722656 C 319.339844 366.078125 320.902344 365.25 321.640625 365.25 C 322.195312 365.15625 322.746094 365.527344 323.113281 365.894531 C 323.484375 366.445312 323.851562 367.550781 323.757812 368.195312 C 323.757812 368.75 323.390625 369.300781 322.929688 369.671875 C 322.46875 370.039062 321.363281 370.40625 320.628906 370.222656 C 319.890625 369.945312 318.878906 368.566406 318.695312 367.828125 C 318.601562 367.277344 318.878906 366.632812 319.246094 366.261719 C 319.613281 365.710938 320.167969 365.433594 321.363281 365.15625 C 325.417969 364.328125 346.230469 363.777344 350.097656 365.894531 C 351.480469 366.632812 352.214844 367.921875 352.125 368.75 C 352.03125 369.671875 349.453125 371.144531 349.453125 371.144531 " clip-rule="nonzero"/></clipPath><clipPath id="cb1f9c1798"><path d="M 314.617188 364.539062 L 345.390625 364.539062 L 345.390625 372.085938 L 314.617188 372.085938 Z M 314.617188 364.539062 " clip-rule="nonzero"/></clipPath><clipPath id="975f4d2dd8"><path d="M 342.179688 372.066406 C 316.300781 369.761719 316.023438 369.761719 315.65625 369.394531 C 315.101562 368.933594 314.550781 367.921875 314.640625 367.183594 C 314.734375 366.355469 315.929688 365.066406 316.667969 364.789062 C 317.40625 364.605469 318.601562 364.972656 319.0625 365.527344 C 319.613281 366.171875 319.800781 367.828125 319.523438 368.65625 C 319.15625 369.300781 318.140625 369.855469 317.496094 369.945312 C 316.761719 370.039062 315.65625 369.484375 315.195312 369.027344 C 314.824219 368.566406 314.640625 368.011719 314.640625 367.460938 C 314.640625 366.90625 314.734375 366.261719 315.101562 365.894531 C 315.5625 365.34375 316.113281 364.972656 317.3125 364.789062 C 321.089844 364.050781 339.414062 365.34375 343.097656 366.722656 C 344.203125 367.183594 344.757812 367.644531 345.03125 368.289062 C 345.402344 368.75 345.492188 369.578125 345.21875 370.128906 C 344.847656 370.867188 342.179688 372.066406 342.179688 372.066406 " clip-rule="nonzero"/></clipPath><clipPath id="75c6b34745"><path d="M 317.671875 365.453125 L 348.996094 365.453125 L 348.996094 371.707031 L 317.671875 371.707031 Z M 317.671875 365.453125 " clip-rule="nonzero"/></clipPath><clipPath id="f67590496f"><path d="M 346.324219 371.695312 C 318.324219 370.867188 317.679688 369.945312 317.679688 369.117188 C 317.679688 368.289062 318.695312 367 319.429688 366.632812 C 320.074219 366.355469 321.179688 366.632812 321.734375 367.089844 C 322.195312 367.460938 322.746094 368.472656 322.652344 369.210938 C 322.5625 369.945312 321.457031 371.234375 320.628906 371.421875 C 319.984375 371.605469 318.96875 371.234375 318.417969 370.777344 C 318.050781 370.5 317.773438 369.855469 317.679688 369.394531 C 317.679688 368.839844 317.679688 368.289062 317.957031 367.828125 C 318.324219 367.277344 318.878906 366.90625 319.984375 366.539062 C 323.667969 365.433594 342.269531 364.882812 346.324219 366.355469 C 347.796875 367 348.71875 367.921875 348.902344 368.75 C 349.085938 369.300781 348.902344 370.039062 348.441406 370.5 C 348.074219 371.050781 346.324219 371.695312 346.324219 371.695312 " clip-rule="nonzero"/></clipPath><clipPath id="63f4344124"><path d="M 319.214844 4.875 L 343.054688 4.875 L 343.054688 11.214844 L 319.214844 11.214844 Z M 319.214844 4.875 " clip-rule="nonzero"/></clipPath><clipPath id="b6bf2906a7"><path d="M 340.335938 11.144531 C 319.890625 10.316406 319.246094 9.117188 319.246094 8.195312 C 319.246094 7.460938 319.890625 6.355469 320.535156 5.984375 C 321.363281 5.617188 323.207031 5.800781 323.941406 6.355469 C 324.496094 6.816406 324.957031 8.105469 324.773438 8.839844 C 324.496094 9.671875 323.207031 10.960938 322.285156 11.144531 C 321.550781 11.328125 320.351562 10.773438 319.890625 10.222656 C 319.339844 9.578125 319.0625 8.378906 319.339844 7.644531 C 319.613281 6.816406 320.628906 6.078125 322.007812 5.617188 C 325.324219 4.511719 337.941406 4.789062 340.796875 5.617188 C 341.71875 5.894531 342.085938 6.171875 342.453125 6.722656 C 342.824219 7.183594 343.097656 8.011719 343.007812 8.566406 C 343.007812 9.210938 342.636719 9.945312 342.179688 10.40625 C 341.71875 10.773438 340.335938 11.144531 340.335938 11.144531 " clip-rule="nonzero"/></clipPath><clipPath id="9283beb152"><path d="M 319.304688 7.355469 L 345.960938 7.355469 L 345.960938 13.925781 L 319.304688 13.925781 Z M 319.304688 7.355469 " clip-rule="nonzero"/></clipPath><clipPath id="472a8a8b37"><path d="M 343.007812 13.90625 C 320.71875 13.078125 319.800781 12.25 319.429688 11.511719 C 319.246094 10.960938 319.339844 10.222656 319.613281 9.671875 C 319.890625 9.023438 320.902344 8.195312 321.640625 8.011719 C 322.195312 7.828125 322.839844 7.921875 323.390625 8.195312 C 324.035156 8.566406 324.863281 9.578125 324.957031 10.316406 C 325.140625 11.144531 324.589844 12.339844 324.128906 12.800781 C 323.757812 13.261719 323.023438 13.539062 322.46875 13.628906 C 321.917969 13.628906 321.179688 13.539062 320.71875 13.167969 C 320.167969 12.800781 319.339844 11.695312 319.339844 10.867188 C 319.429688 10.039062 320.074219 8.75 321.273438 8.105469 C 324.3125 6.539062 337.296875 7.921875 341.257812 8.195312 C 342.824219 8.378906 343.835938 8.289062 344.574219 8.75 C 345.21875 9.117188 345.679688 9.671875 345.863281 10.316406 C 346.046875 10.960938 345.863281 12.25 345.402344 12.894531 C 344.941406 13.445312 343.007812 13.90625 343.007812 13.90625 " clip-rule="nonzero"/></clipPath><clipPath id="9a4ae68427"><path d="M 320.636719 8.609375 L 342.09375 8.609375 L 342.09375 14.851562 L 320.636719 14.851562 Z M 320.636719 8.609375 " clip-rule="nonzero"/></clipPath><clipPath id="20a26285fb"><path d="M 339.230469 14.828125 C 321.363281 13.8125 320.71875 12.617188 320.71875 11.695312 C 320.71875 10.960938 321.363281 9.855469 322.101562 9.484375 C 322.839844 9.117188 324.773438 9.300781 325.417969 9.855469 C 326.0625 10.5 326.246094 12.339844 325.878906 13.167969 C 325.601562 13.90625 324.589844 14.644531 323.757812 14.644531 C 322.929688 14.644531 321.363281 13.628906 320.902344 12.894531 C 320.628906 12.339844 320.628906 11.695312 320.8125 11.144531 C 321.089844 10.5 321.550781 9.761719 322.652344 9.300781 C 325.234375 8.105469 336.652344 8.75 339.414062 9.300781 C 340.335938 9.484375 340.796875 9.671875 341.257812 10.039062 C 341.71875 10.5 342.085938 11.144531 342.085938 11.789062 C 342.085938 12.523438 341.625 13.722656 341.074219 14.183594 C 340.613281 14.644531 339.230469 14.828125 339.230469 14.828125 " clip-rule="nonzero"/></clipPath><clipPath id="1ce297233a"><path d="M 320.660156 4.136719 L 343.613281 4.136719 L 343.613281 11.019531 L 320.660156 11.019531 Z M 320.660156 4.136719 " clip-rule="nonzero"/></clipPath><clipPath id="f331121cb6"><path d="M 341.074219 10.222656 C 321.363281 10.222656 320.8125 8.933594 320.71875 8.105469 C 320.71875 7.277344 321.457031 6.261719 322.007812 5.894531 C 322.5625 5.527344 323.207031 5.433594 323.757812 5.433594 C 324.3125 5.527344 324.957031 5.800781 325.324219 6.171875 C 325.878906 6.722656 326.335938 7.921875 326.152344 8.65625 C 326.0625 9.394531 325.234375 10.316406 324.679688 10.683594 C 324.128906 10.960938 323.484375 11.144531 322.929688 10.867188 C 322.101562 10.589844 320.902344 9.117188 320.71875 8.378906 C 320.628906 7.734375 320.8125 7.089844 321.179688 6.628906 C 321.640625 6.078125 322.285156 5.800781 323.484375 5.433594 C 326.613281 4.605469 339.046875 3.40625 341.808594 4.882812 C 343.007812 5.527344 343.46875 6.722656 343.558594 7.550781 C 343.652344 8.195312 343.285156 8.839844 342.824219 9.300781 C 342.453125 9.761719 341.074219 10.222656 341.074219 10.222656 " clip-rule="nonzero"/></clipPath><clipPath id="3baa4583d1"><path d="M 303.917969 4.347656 L 342.234375 4.347656 L 342.234375 9.984375 L 303.917969 9.984375 Z M 303.917969 4.347656 " clip-rule="nonzero"/></clipPath><clipPath id="d9e70b72fc"><path d="M 339.691406 9.945312 C 305.246094 9.578125 304.789062 9.300781 304.417969 8.75 C 304.050781 8.378906 303.957031 7.828125 303.957031 7.367188 C 304.050781 6.722656 304.601562 5.800781 305.15625 5.433594 C 305.523438 5.15625 306.078125 4.972656 306.628906 5.15625 C 307.273438 5.339844 308.472656 6.355469 308.65625 7.089844 C 308.839844 7.734375 308.472656 8.75 308.011719 9.210938 C 307.367188 9.671875 305.800781 9.855469 305.15625 9.484375 C 304.511719 9.210938 304.050781 8.195312 303.957031 7.550781 C 303.957031 7.089844 304.050781 6.539062 304.417969 6.171875 C 304.789062 5.617188 305.246094 5.339844 306.351562 5.066406 C 310.679688 4.050781 335.640625 4.238281 339.691406 4.972656 C 340.613281 5.066406 340.980469 5.15625 341.347656 5.527344 C 341.808594 6.078125 342.363281 7.089844 342.179688 7.734375 C 341.992188 8.566406 339.691406 9.945312 339.691406 9.945312 " clip-rule="nonzero"/></clipPath><clipPath id="cd6b9f96d4"><path d="M 30.21875 4.574219 L 49.921875 4.574219 L 49.921875 10.695312 L 30.21875 10.695312 Z M 30.21875 4.574219 " clip-rule="nonzero"/></clipPath><clipPath id="c4a4dcee2d"><path d="M 33.015625 4.882812 C 49.132812 5.339844 49.867188 6.539062 49.867188 7.367188 C 49.960938 8.105469 49.316406 9.210938 48.671875 9.578125 C 47.839844 9.945312 46 9.855469 45.355469 9.300781 C 44.710938 8.65625 44.433594 6.816406 44.800781 6.078125 C 45.078125 5.339844 46.09375 4.605469 46.828125 4.605469 C 47.75 4.605469 49.316406 5.433594 49.683594 6.261719 C 50.050781 6.90625 49.777344 8.105469 49.5 8.75 C 49.222656 9.210938 48.855469 9.484375 48.117188 9.855469 C 45.816406 10.683594 35.59375 10.867188 33.015625 10.40625 C 32.09375 10.222656 31.632812 10.128906 31.171875 9.671875 C 30.710938 9.210938 30.25 8.011719 30.25 7.277344 C 30.34375 6.722656 30.710938 5.984375 31.171875 5.617188 C 31.632812 5.15625 33.015625 4.882812 33.015625 4.882812 " clip-rule="nonzero"/></clipPath><clipPath id="b5e902666c"><path d="M 29.207031 7.703125 L 56.757812 7.703125 L 56.757812 14.054688 L 29.207031 14.054688 Z M 29.207031 7.703125 " clip-rule="nonzero"/></clipPath><clipPath id="89ef84c767"><path d="M 31.910156 7.734375 C 56.039062 8.65625 56.40625 9.300781 56.589844 9.945312 C 56.773438 10.5 56.773438 11.050781 56.5 11.511719 C 56.128906 12.15625 54.65625 13.078125 53.921875 13.078125 C 53.183594 13.078125 52.261719 12.25 51.984375 11.695312 C 51.710938 11.234375 51.617188 10.683594 51.710938 10.128906 C 51.894531 9.484375 52.628906 8.566406 53.183594 8.289062 C 53.644531 8.011719 54.289062 7.921875 54.75 8.105469 C 55.484375 8.472656 56.589844 9.761719 56.683594 10.5 C 56.773438 11.050781 56.589844 11.605469 56.222656 12.066406 C 55.855469 12.523438 55.300781 12.800781 54.195312 13.078125 C 50.695312 13.90625 34.671875 14.734375 31.265625 12.984375 C 29.976562 12.25 29.144531 10.960938 29.238281 10.128906 C 29.421875 9.210938 31.910156 7.734375 31.910156 7.734375 " clip-rule="nonzero"/></clipPath><clipPath id="d0ddf7a0b3"><path d="M 29.054688 6.757812 L 61.691406 6.757812 L 61.691406 14.355469 L 29.054688 14.355469 Z M 29.054688 6.757812 " clip-rule="nonzero"/></clipPath><clipPath id="b3d4d9bc5a"><path d="M 31.355469 8.933594 C 60.550781 7.183594 61.289062 7.828125 61.5625 8.65625 C 61.839844 9.300781 61.472656 10.40625 61.101562 10.867188 C 60.734375 11.328125 60.183594 11.605469 59.722656 11.789062 C 59.261719 11.878906 58.617188 11.878906 58.15625 11.605469 C 57.605469 11.234375 56.867188 10.316406 56.683594 9.761719 C 56.589844 9.210938 56.683594 8.566406 56.960938 8.105469 C 57.328125 7.550781 58.25 6.90625 58.894531 6.816406 C 59.445312 6.722656 60 6.816406 60.457031 7.183594 C 61.011719 7.550781 61.65625 8.472656 61.65625 9.117188 C 61.65625 9.945312 61.101562 11.050781 60 11.695312 C 57.605469 12.984375 49.683594 11.695312 44.800781 12.15625 C 40.199219 12.523438 34.027344 15.011719 31.539062 14.183594 C 30.160156 13.722656 29.144531 12.433594 29.054688 11.605469 C 29.054688 10.773438 31.355469 8.933594 31.355469 8.933594 " clip-rule="nonzero"/></clipPath><clipPath id="855e577cf9"><path d="M 29 7.453125 L 46.726562 7.453125 L 46.726562 13.445312 L 29 13.445312 Z M 29 7.453125 " clip-rule="nonzero"/></clipPath><clipPath id="c74fd422d5"><path d="M 31.726562 7.460938 C 45.816406 8.195312 46.367188 8.933594 46.550781 9.484375 C 46.738281 10.039062 46.738281 10.683594 46.460938 11.144531 C 46.09375 11.878906 44.617188 12.800781 43.789062 12.800781 C 43.054688 12.800781 42.039062 12.15625 41.761719 11.417969 C 41.394531 10.683594 41.761719 8.933594 42.316406 8.289062 C 42.777344 7.828125 43.972656 7.460938 44.617188 7.644531 C 45.449219 7.921875 46.644531 9.210938 46.644531 10.039062 C 46.738281 10.960938 46 12.066406 44.894531 12.710938 C 42.683594 13.90625 34.121094 13.355469 31.726562 12.984375 C 30.804688 12.800781 30.34375 12.710938 29.882812 12.25 C 29.421875 11.789062 28.871094 10.589844 29.054688 9.855469 C 29.238281 9.023438 31.726562 7.460938 31.726562 7.460938 " clip-rule="nonzero"/></clipPath><clipPath id="b4e868114c"><path d="M 30.261719 3.648438 L 53.0625 3.648438 L 53.0625 9.75 L 30.261719 9.75 Z M 30.261719 3.648438 " clip-rule="nonzero"/></clipPath><clipPath id="09cda5c94a"><path d="M 33.015625 3.683594 C 52.445312 4.605469 52.90625 5.710938 53 6.445312 C 53.089844 7 52.816406 7.644531 52.445312 8.011719 C 51.984375 8.472656 50.972656 9.023438 50.234375 8.839844 C 49.40625 8.75 48.210938 7.550781 48.027344 6.722656 C 47.839844 6.078125 48.300781 4.972656 48.761719 4.511719 C 49.316406 4.050781 50.421875 3.683594 51.066406 3.867188 C 51.800781 4.144531 52.90625 5.433594 53 6.261719 C 53.183594 6.722656 52.90625 7.367188 52.628906 7.734375 C 52.171875 8.289062 51.617188 8.566406 50.511719 8.839844 C 47.566406 9.671875 36.144531 10.222656 33.015625 9.023438 C 31.632812 8.472656 30.621094 7.550781 30.34375 6.628906 C 30.160156 5.984375 30.710938 4.882812 31.265625 4.328125 C 31.632812 3.960938 33.015625 3.683594 33.015625 3.683594 " clip-rule="nonzero"/></clipPath><clipPath id="202010592f"><path d="M 6.738281 31.230469 L 12.6875 31.230469 L 12.6875 59.433594 L 6.738281 59.433594 Z M 6.738281 31.230469 " clip-rule="nonzero"/></clipPath><clipPath id="f2ae20a59e"><path d="M 12.660156 33.984375 C 11.832031 58.847656 10.636719 59.402344 9.804688 59.402344 C 9.160156 59.402344 8.148438 58.664062 7.78125 58.113281 C 7.503906 57.742188 7.320312 57.097656 7.410156 56.546875 C 7.597656 55.902344 8.148438 54.796875 8.792969 54.519531 C 9.53125 54.242188 11.28125 54.519531 11.832031 55.074219 C 12.386719 55.535156 12.753906 56.730469 12.476562 57.375 C 12.292969 58.203125 10.910156 59.21875 10.175781 59.402344 C 9.621094 59.492188 8.976562 59.308594 8.515625 58.941406 C 8.054688 58.574219 7.6875 57.929688 7.410156 56.824219 C 6.492188 53.324219 6.675781 37.296875 7.320312 33.984375 C 7.503906 33.0625 7.597656 32.601562 7.964844 32.234375 C 8.515625 31.679688 9.621094 31.128906 10.359375 31.3125 C 11.1875 31.496094 12.660156 33.984375 12.660156 33.984375 " clip-rule="nonzero"/></clipPath><clipPath id="4245b57204"><path d="M 5.738281 28.316406 L 13.421875 28.316406 L 13.421875 59.6875 L 5.738281 59.6875 Z M 5.738281 28.316406 " clip-rule="nonzero"/></clipPath><clipPath id="d0eef01811"><path d="M 13.398438 30.851562 C 12.9375 49.363281 11.925781 55.71875 10.726562 57.929688 C 10.265625 58.847656 9.714844 59.402344 9.070312 59.585938 C 8.332031 59.769531 6.675781 59.21875 6.214844 58.574219 C 5.753906 58.019531 5.664062 56.824219 6.03125 56.179688 C 6.398438 55.535156 7.871094 54.613281 8.703125 54.703125 C 9.4375 54.796875 10.636719 56.085938 10.820312 56.824219 C 11.003906 57.558594 10.542969 58.574219 9.992188 59.03125 C 9.53125 59.492188 8.425781 59.863281 7.6875 59.585938 C 6.953125 59.402344 6.121094 58.480469 5.847656 57.285156 C 5.203125 54.796875 8.054688 48.902344 8.425781 44.574219 C 8.886719 40.0625 6.953125 33.152344 8.148438 30.574219 C 8.703125 29.378906 9.992188 28.367188 10.820312 28.367188 C 11.742188 28.457031 13.398438 30.851562 13.398438 30.851562 " clip-rule="nonzero"/></clipPath><clipPath id="3c8ddbbc35"><path d="M 3.597656 30.789062 L 13.277344 30.789062 L 13.277344 60.675781 L 3.597656 60.675781 Z M 3.597656 30.789062 " clip-rule="nonzero"/></clipPath><clipPath id="587e5e5cff"><path d="M 8.886719 32.785156 C 12.660156 51.203125 13.492188 55.808594 13.214844 58.019531 C 13.03125 58.941406 12.660156 59.675781 12.199219 60.046875 C 11.832031 60.414062 11.28125 60.691406 10.726562 60.597656 C 9.992188 60.414062 8.703125 59.402344 8.332031 58.757812 C 8.148438 58.296875 8.242188 57.652344 8.425781 57.191406 C 8.703125 56.636719 9.621094 55.902344 10.175781 55.71875 C 10.726562 55.535156 11.28125 55.625 11.742188 55.902344 C 12.292969 56.179688 13.03125 57.097656 13.121094 57.742188 C 13.304688 58.203125 13.214844 58.847656 12.9375 59.21875 C 12.570312 59.769531 11.648438 60.507812 11.003906 60.507812 C 10.175781 60.597656 9.070312 59.953125 8.425781 59.03125 C 7.320312 57.191406 8.054688 52.308594 7.410156 48.441406 C 6.582031 43.835938 2.992188 36.285156 3.726562 33.429688 C 4.003906 32.050781 5.109375 30.945312 6.03125 30.851562 C 6.859375 30.761719 8.886719 32.785156 8.886719 32.785156 " clip-rule="nonzero"/></clipPath></defs><rect x="-37.5" width="450" fill="#ffffff" y="-37.499999" height="449.999989" fill-opacity="1"/><rect x="-37.5" width="450" fill="#000000" y="-37.499999" height="449.999989" fill-opacity="1"/><g clip-path="url(#0ba641fc91)"><g clip-path="url(#c1453e79f1)"><g clip-path="url(#39d2de45d5)"><path fill="#ffffff" d="M 233.652344 48.523438 C 210.511719 48.523438 191.753906 67.285156 191.753906 90.421875 L 191.746094 123.480469 C 192.914062 122.03125 194.171875 120.648438 195.503906 119.316406 C 199.6875 115.132812 204.421875 111.730469 209.554688 109.160156 L 209.554688 90.425781 C 209.554688 83.988281 212.0625 77.9375 216.613281 73.386719 C 221.164062 68.835938 227.210938 66.328125 233.652344 66.332031 C 240.082031 66.328125 246.125 68.832031 250.679688 73.386719 C 255.230469 77.9375 257.742188 83.988281 257.738281 90.417969 L 257.738281 127.078125 C 257.742188 133.515625 255.230469 139.566406 250.683594 144.117188 C 246.125 148.671875 240.082031 151.175781 233.640625 151.175781 C 230.515625 151.183594 227.476562 150.585938 224.65625 149.445312 C 222.683594 151.648438 221.597656 154.472656 221.597656 157.453125 L 221.601562 167.226562 C 225.414062 168.367188 229.460938 168.984375 233.648438 168.988281 C 256.785156 168.992188 275.550781 150.226562 275.550781 127.085938 L 275.546875 90.414062 C 275.542969 67.28125 256.789062 48.523438 233.652344 48.523438 Z M 233.652344 48.523438 " fill-opacity="1" fill-rule="nonzero"/></g></g></g><g clip-path="url(#505c053fd6)"><g clip-path="url(#f37946bae6)"><g clip-path="url(#330c340a3f)"><path fill="#ffffff" d="M 271.988281 165.03125 C 267.796875 169.222656 263.011719 172.652344 257.734375 175.257812 L 257.734375 194.121094 C 257.742188 200.558594 255.234375 206.605469 250.683594 211.15625 C 246.132812 215.707031 240.089844 218.210938 233.648438 218.210938 C 227.210938 218.214844 221.164062 215.707031 216.613281 211.15625 C 212.0625 206.605469 209.554688 200.558594 209.554688 194.117188 L 209.554688 157.457031 C 209.5625 151.019531 212.0625 144.976562 216.613281 140.429688 C 221.171875 135.871094 227.214844 133.367188 233.644531 133.367188 C 236.777344 133.367188 239.820312 133.960938 242.644531 135.09375 C 244.628906 132.890625 245.710938 130.058594 245.710938 127.074219 L 245.707031 117.316406 C 241.886719 116.171875 237.835938 115.558594 233.648438 115.554688 C 210.511719 115.554688 191.746094 134.316406 191.746094 157.457031 L 191.753906 194.121094 C 191.75 217.265625 210.503906 236.023438 233.65625 236.023438 C 256.792969 236.023438 275.550781 217.265625 275.550781 194.128906 L 275.550781 161.117188 C 274.433594 162.464844 273.25 163.769531 271.996094 165.023438 Z M 271.988281 165.03125 " fill-opacity="1" fill-rule="nonzero"/></g></g></g><path stroke-linecap="butt" transform="matrix(1.188771, 0, 0, 1.188771, 74.472276, 13.724561)" fill="none" stroke-linejoin="miter" d="M 5.063979 266.998787 C 7.942477 264.488317 10.124352 260.167284 11.606318 254.035689 C 13.131002 247.861377 13.890058 241.644348 13.890058 235.387886 L 13.890058 54.548561 C 13.890058 48.170519 13.131002 41.95349 11.606318 35.904044 C 10.124352 29.811881 7.942477 25.490848 5.063979 22.93766 L 79.645332 22.93766 C 76.806266 25.490848 74.624391 29.772449 73.099707 35.782463 C 71.578309 41.74976 70.815967 47.924072 70.815967 54.302114 L 70.815967 218.964676 L 136.817688 218.964676 C 141.01714 218.964676 145.729202 218.596649 150.957158 217.854023 C 156.181829 217.071965 161.452503 215.672148 166.762609 213.654571 C 172.072714 211.640279 176.76506 208.676347 180.839646 204.766059 L 180.839646 266.998787 Z M 5.063979 266.998787 " stroke="#ffffff" stroke-width="9.4836" stroke-opacity="1" stroke-miterlimit="4"/><g clip-path="url(#33b4a46c1f)"><path fill="#ffffff" d="M 360.238281 37.519531 L 371.242188 37.519531 L 371.242188 338.28125 L 360.238281 338.28125 Z M 360.238281 37.519531 " fill-opacity="1" fill-rule="nonzero"/></g><g clip-path="url(#4778954484)"><path fill="#ffffff" d="M 2.992188 37.519531 L 13.996094 37.519531 L 13.996094 338.28125 L 2.992188 338.28125 Z M 2.992188 37.519531 " fill-opacity="1" fill-rule="nonzero"/></g><g clip-path="url(#ddb517ffa7)"><path fill="#ffffff" d="M 36.734375 3.777344 L 337.496094 3.777344 L 337.496094 14.78125 L 36.734375 14.78125 Z M 36.734375 3.777344 " fill-opacity="1" fill-rule="nonzero"/></g><g clip-path="url(#e1052ec43c)"><path fill="#ffffff" d="M 36.734375 361.023438 L 337.496094 361.023438 L 337.496094 372.027344 L 36.734375 372.027344 Z M 36.734375 361.023438 " fill-opacity="1" fill-rule="nonzero"/></g><g clip-path="url(#aa98ce0b3e)"><path fill="#ffffff" d="M 360.238281 14.78125 L 360.238281 37.519531 L 371.242188 37.519531 L 371.242188 3.777344 L 337.496094 3.777344 L 337.496094 14.78125 Z M 360.238281 14.78125 " fill-opacity="1" fill-rule="nonzero"/></g><g clip-path="url(#3f6d956651)"><path fill="#ffffff" d="M 13.996094 14.78125 L 36.734375 14.78125 L 36.734375 3.777344 L 2.992188 3.777344 L 2.992188 37.519531 L 13.996094 37.519531 Z M 13.996094 14.78125 " fill-opacity="1" fill-rule="nonzero"/></g><g clip-path="url(#0737a861fc)"><path fill="#ffffff" d="M 360.238281 361.023438 L 337.496094 361.023438 L 337.496094 372.027344 L 371.242188 372.027344 L 371.242188 338.28125 L 360.238281 338.28125 Z M 360.238281 361.023438 " fill-opacity="1" fill-rule="nonzero"/></g><g clip-path="url(#dd45055f4b)"><path fill="#ffffff" d="M 13.996094 361.023438 L 13.996094 338.28125 L 2.992188 338.28125 L 2.992188 372.027344 L 36.734375 372.027344 L 36.734375 361.023438 Z M 13.996094 361.023438 " fill-opacity="1" fill-rule="nonzero"/></g><g clip-path="url(#d3a2bbdf8a)"><g clip-path="url(#95e038f423)"><path fill="#ffffff" d="M 31.265625 360.921875 L 48.105469 360.921875 L 48.105469 373.90625 L 31.265625 373.90625 Z M 31.265625 360.921875 " fill-opacity="1" fill-rule="nonzero"/></g></g><g clip-path="url(#94b80a251c)"><g clip-path="url(#7d87736f37)"><path fill="#ffffff" d="M 23.253906 359.171875 L 46.300781 359.171875 L 46.300781 372.894531 L 23.253906 372.894531 Z M 23.253906 359.171875 " fill-opacity="1" fill-rule="nonzero"/></g></g><g clip-path="url(#ca4cb7c5e4)"><g clip-path="url(#6cc89df3f3)"><path fill="#ffffff" d="M 20.671875 357.882812 L 49.054688 357.882812 L 49.054688 372.800781 L 20.671875 372.800781 Z M 20.671875 357.882812 " fill-opacity="1" fill-rule="nonzero"/></g></g><g clip-path="url(#51cbd7697c)"><g clip-path="url(#aa60babe7a)"><path fill="#ffffff" d="M 24.910156 357.789062 L 48.65625 357.789062 L 48.65625 371.328125 L 24.910156 371.328125 Z M 24.910156 357.789062 " fill-opacity="1" fill-rule="nonzero"/></g></g><g clip-path="url(#235fad4000)"><g clip-path="url(#ac05daa465)"><path fill="#ffffff" d="M 21.6875 359.910156 L 51.128906 359.910156 L 51.128906 375.105469 L 21.6875 375.105469 Z M 21.6875 359.910156 " fill-opacity="1" fill-rule="nonzero"/></g></g><g clip-path="url(#8a3763cd41)"><g clip-path="url(#fd5923c491)"><path fill="#ffffff" d="M 3.914062 319.847656 L 16.53125 319.847656 L 16.53125 358.238281 L 3.914062 358.238281 Z M 3.914062 319.847656 " fill-opacity="1" fill-rule="nonzero"/></g></g><g clip-path="url(#3c8870812b)"><g clip-path="url(#e76818556a)"><path fill="#ffffff" d="M 3.726562 322.058594 L 18.003906 322.058594 L 18.003906 366.441406 L 3.726562 366.441406 Z M 3.726562 322.058594 " fill-opacity="1" fill-rule="nonzero"/></g></g><g clip-path="url(#5356521610)"><g clip-path="url(#a18fcdcb3b)"><path fill="#ffffff" d="M 1.242188 326.015625 L 14.042969 326.015625 L 14.042969 359.46875 L 1.242188 359.46875 Z M 1.242188 326.015625 " fill-opacity="1" fill-rule="nonzero"/></g></g><g clip-path="url(#e410d2a7d4)"><g clip-path="url(#a5cb2a5e1e)"><path fill="#ffffff" d="M 318.96875 358.433594 L 355.535156 358.433594 L 355.535156 372.617188 L 318.96875 372.617188 Z M 318.96875 358.433594 " fill-opacity="1" fill-rule="nonzero"/></g></g><g clip-path="url(#526a446220)"><g clip-path="url(#affc3e2ba0)"><path fill="#ffffff" d="M 322.652344 358.527344 L 354.429688 358.527344 L 354.429688 371.605469 L 322.652344 371.605469 Z M 322.652344 358.527344 " fill-opacity="1" fill-rule="nonzero"/></g></g><g clip-path="url(#3ecbb9f07a)"><g clip-path="url(#6c56c6963e)"><path fill="#ffffff" d="M 312.984375 358.066406 L 351.1875 358.066406 L 351.1875 370.867188 L 312.984375 370.867188 Z M 312.984375 358.066406 " fill-opacity="1" fill-rule="nonzero"/></g></g><g clip-path="url(#a8c1bf9acf)"><g clip-path="url(#f78d845399)"><path fill="#ffffff" d="M 315.011719 361.472656 L 355.800781 361.472656 L 355.800781 374.828125 L 315.011719 374.828125 Z M 315.011719 361.472656 " fill-opacity="1" fill-rule="nonzero"/></g></g><g clip-path="url(#cb1f9c1798)"><g clip-path="url(#975f4d2dd8)"><path fill="#ffffff" d="M 310.957031 361.105469 L 348.996094 361.105469 L 348.996094 375.75 L 310.957031 375.75 Z M 310.957031 361.105469 " fill-opacity="1" fill-rule="nonzero"/></g></g><g clip-path="url(#75c6b34745)"><g clip-path="url(#f67590496f)"><path fill="#ffffff" d="M 313.996094 362.671875 L 352.671875 362.671875 L 352.671875 375.378906 L 313.996094 375.378906 Z M 313.996094 362.671875 " fill-opacity="1" fill-rule="nonzero"/></g></g><g clip-path="url(#63f4344124)"><g clip-path="url(#b6bf2906a7)"><path fill="#ffffff" d="M 315.5625 1.933594 L 346.757812 1.933594 L 346.757812 14.917969 L 315.5625 14.917969 Z M 315.5625 1.933594 " fill-opacity="1" fill-rule="nonzero"/></g></g><g clip-path="url(#9283beb152)"><g clip-path="url(#472a8a8b37)"><path fill="#ffffff" d="M 315.65625 4.328125 L 349.5625 4.328125 L 349.5625 17.683594 L 315.65625 17.683594 Z M 315.65625 4.328125 " fill-opacity="1" fill-rule="nonzero"/></g></g><g clip-path="url(#9a4ae68427)"><g clip-path="url(#20a26285fb)"><path fill="#ffffff" d="M 317.035156 5.617188 L 345.746094 5.617188 L 345.746094 18.601562 L 317.035156 18.601562 Z M 317.035156 5.617188 " fill-opacity="1" fill-rule="nonzero"/></g></g><g clip-path="url(#1ce297233a)"><g clip-path="url(#f331121cb6)"><path fill="#ffffff" d="M 317.035156 1.195312 L 347.238281 1.195312 L 347.238281 14.644531 L 317.035156 14.644531 Z M 317.035156 1.195312 " fill-opacity="1" fill-rule="nonzero"/></g></g><g clip-path="url(#3baa4583d1)"><g clip-path="url(#d9e70b72fc)"><path fill="#ffffff" d="M 300.273438 1.289062 L 345.878906 1.289062 L 345.878906 13.722656 L 300.273438 13.722656 Z M 300.273438 1.289062 " fill-opacity="1" fill-rule="nonzero"/></g></g><g clip-path="url(#cd6b9f96d4)"><g clip-path="url(#c4a4dcee2d)"><path fill="#ffffff" d="M 26.566406 0.921875 L 53.574219 0.921875 L 53.574219 14.089844 L 26.566406 14.089844 Z M 26.566406 0.921875 " fill-opacity="1" fill-rule="nonzero"/></g></g><g clip-path="url(#b5e902666c)"><g clip-path="url(#89ef84c767)"><path fill="#ffffff" d="M 25.554688 4.050781 L 60.359375 4.050781 L 60.359375 16.851562 L 25.554688 16.851562 Z M 25.554688 4.050781 " fill-opacity="1" fill-rule="nonzero"/></g></g><g clip-path="url(#d0ddf7a0b3)"><g clip-path="url(#b3d4d9bc5a)"><path fill="#ffffff" d="M 25.371094 3.132812 L 65.316406 3.132812 L 65.316406 17.867188 L 25.371094 17.867188 Z M 25.371094 3.132812 " fill-opacity="1" fill-rule="nonzero"/></g></g><g clip-path="url(#855e577cf9)"><g clip-path="url(#c74fd422d5)"><path fill="#ffffff" d="M 25.371094 3.777344 L 50.402344 3.777344 L 50.402344 16.667969 L 25.371094 16.667969 Z M 25.371094 3.777344 " fill-opacity="1" fill-rule="nonzero"/></g></g><g clip-path="url(#b4e868114c)"><g clip-path="url(#09cda5c94a)"><path fill="#ffffff" d="M 26.660156 0 L 56.761719 0 L 56.761719 12.800781 L 26.660156 12.800781 Z M 26.660156 0 " fill-opacity="1" fill-rule="nonzero"/></g></g><g clip-path="url(#202010592f)"><g clip-path="url(#f2ae20a59e)"><path fill="#ffffff" d="M 3.636719 27.628906 L 16.4375 27.628906 L 16.4375 63.082031 L 3.636719 63.082031 Z M 3.636719 27.628906 " fill-opacity="1" fill-rule="nonzero"/></g></g><g clip-path="url(#4245b57204)"><g clip-path="url(#d0eef01811)"><path fill="#ffffff" d="M 2.164062 24.679688 L 17.175781 24.679688 L 17.175781 63.382812 L 2.164062 63.382812 Z M 2.164062 24.679688 " fill-opacity="1" fill-rule="nonzero"/></g></g><g clip-path="url(#3c8ddbbc35)"><g clip-path="url(#587e5e5cff)"><path fill="#ffffff" d="M 0.0429688 27.167969 L 16.898438 27.167969 L 16.898438 64.296875 L 0.0429688 64.296875 Z M 0.0429688 27.167969 " fill-opacity="1" fill-rule="nonzero"/></g></g></svg>