<svg xmlns="http://www.w3.org/2000/svg" xmlns:xlink="http://www.w3.org/1999/xlink" width="820" zoomAndPan="magnify" viewBox="0 0 615 161.249994" height="215" preserveAspectRatio="xMidYMid meet" version="1.0"><defs><clipPath id="6432d8b383"><path d="M 50 0 L 481 0 L 481 160.503906 L 50 160.503906 Z M 50 0 " clip-rule="nonzero"/></clipPath><clipPath id="0d0162fb87"><path d="M 411 0 L 588 0 L 588 160.503906 L 411 160.503906 Z M 411 0 " clip-rule="nonzero"/></clipPath><clipPath id="e7fe6ef676"><path d="M 1.421875 0 L 150 0 L 150 160.503906 L 1.421875 160.503906 Z M 1.421875 0 " clip-rule="nonzero"/></clipPath><clipPath id="c1abc0b742"><path d="M 565.425781 113.679688 L 610 113.679688 L 610 158 L 565.425781 158 Z M 565.425781 113.679688 " clip-rule="nonzero"/></clipPath></defs><g clip-path="url(#6432d8b383)"><path stroke-linecap="butt" transform="matrix(1.244191, 0, 0, 1.244191, -146.099208, -4.91899)" fill="none" stroke-linejoin="miter" d="M 183.37212 11.190318 L 226.937066 11.190318 C 225.492855 12.948488 224.563536 14.587354 224.15539 16.110055 C 223.762941 17.635896 223.568286 19.196272 223.568286 20.797463 C 223.568286 23.123898 223.988991 25.984065 224.827262 29.38424 C 225.668672 32.781276 226.723574 36.366688 227.991968 40.134195 C 229.28234 43.886005 230.57899 47.51851 231.888199 51.031711 C 233.216245 54.548051 234.409289 57.596593 235.464192 60.174196 C 236.418627 57.596593 237.570856 54.588866 238.92088 51.151015 C 240.286601 47.713165 241.586391 44.118334 242.817111 40.369664 C 244.066667 36.599017 245.112151 33.016745 245.950421 29.61657 C 246.791831 26.219534 247.209396 23.356228 247.209396 21.032932 C 247.209396 19.431741 247.005323 17.877644 246.597176 16.373781 C 246.204728 14.85108 245.287968 13.212214 243.840617 11.454044 L 287.405563 11.454044 C 285.415063 12.722438 283.656893 14.61875 282.134192 17.136701 C 280.608351 19.657791 279.047975 22.517958 277.446784 25.720339 C 274.319753 31.873935 271.556914 37.409031 269.155128 42.331908 C 266.77218 47.254784 264.555629 51.942192 262.505477 56.39413 C 260.474163 60.82723 258.373777 65.389054 256.204321 70.076462 C 254.056841 74.745031 251.614241 79.95989 248.879658 85.721037 L 248.879658 112.118707 C 248.879658 115.085619 249.240711 118.014856 249.965956 120.906418 C 250.688062 123.776003 251.733545 125.807317 253.099267 127.000361 L 217.678416 127.000361 C 219.047277 125.807317 220.092761 123.757165 220.814866 120.846766 C 221.536972 117.917529 221.898025 114.969454 221.898025 111.999402 L 221.898025 85.485568 C 219.18228 79.724421 216.742819 74.509562 214.573362 69.840992 C 212.407045 65.153585 210.297241 60.594901 208.247089 56.158661 C 206.215774 51.706723 203.999224 47.019315 201.594299 42.096439 C 199.21135 37.176702 196.45793 31.638466 193.334038 25.48487 C 191.732847 22.282488 190.188169 19.422322 188.706283 16.901232 C 187.221257 14.383281 185.444249 12.47755 183.37212 11.190318 Z M 291.012951 11.190318 L 322.214193 11.190318 L 354.853367 72.15487 L 354.853367 26.188138 C 354.853367 23.161574 354.489175 20.213499 353.767069 17.340774 C 353.044963 14.452352 352.008899 12.39906 350.662015 11.190318 L 386.054609 11.190318 C 384.685748 12.39906 383.640264 14.430375 382.918159 17.284262 C 382.214891 20.116172 381.863257 23.045409 381.863257 26.071973 L 381.863257 112.118707 C 381.863257 115.085619 382.214891 118.014856 382.918159 120.906418 C 383.640264 123.776003 384.685748 125.807317 386.054609 127.000361 L 354.853367 127.000361 L 322.214193 66.03267 L 322.214193 111.999402 C 322.214193 114.969454 322.575246 117.917529 323.300491 120.846766 C 324.022597 123.757165 325.055522 125.807317 326.405545 127.000361 L 291.012951 127.000361 C 292.381812 125.807317 293.417877 123.776003 294.118005 120.906418 C 294.843251 118.014856 295.204303 115.085619 295.204303 112.118707 L 295.204303 26.071973 C 295.204303 23.045409 294.843251 20.116172 294.118005 17.284262 C 293.417877 14.430375 292.381812 12.39906 291.012951 11.190318 Z M 426.244496 127.000361 L 390.855041 127.000361 C 392.220763 125.807317 393.256828 123.776003 393.960096 120.906418 C 394.682201 118.014856 395.043254 115.085619 395.043254 112.118707 L 395.043254 26.071973 C 395.043254 23.045409 394.682201 20.116172 393.960096 17.284262 C 393.256828 14.430375 392.220763 12.39906 390.855041 11.190318 L 426.244496 11.190318 C 424.897612 12.39906 423.861547 14.452352 423.139442 17.340774 C 422.417336 20.213499 422.056283 23.161574 422.056283 26.188138 L 422.056283 66.999664 C 426.05926 65.633942 429.779674 63.552394 433.217525 60.761299 C 436.655375 57.967064 439.672521 54.755264 442.268962 51.119619 C 444.868542 47.468277 446.890437 43.622279 448.334649 39.578488 C 449.77886 35.534696 450.500966 31.60079 450.500966 27.770491 C 450.500966 24.313803 450.061423 21.208749 449.185477 18.455329 C 448.306392 15.701909 446.742877 13.278145 444.49807 11.190318 L 471.743429 11.190318 C 473.42311 13.199656 474.760575 15.711327 475.755825 18.719054 C 476.751075 21.707944 477.250269 24.998233 477.250269 28.593064 C 477.250269 34.51119 476.088621 40.212685 473.765325 45.700688 C 471.438889 51.18869 468.421743 56.190057 464.710748 60.701647 C 460.999753 65.213237 457.015614 68.993303 452.758331 72.038705 C 453.656253 74.518981 454.817901 77.567522 456.243275 81.18119 C 457.690626 84.772881 459.213327 88.534109 460.814518 92.458596 C 462.415708 96.364246 463.92899 100.018728 465.357504 103.415764 C 466.801715 106.81594 467.925688 109.559941 468.726283 111.647768 C 470.814111 116.843789 472.876821 120.702345 474.908135 123.220295 C 476.958287 125.741386 477.981794 127.000361 477.981794 127.000361 L 438.959834 127.000361 C 438.959834 127.000361 439.358562 126.366164 440.159157 125.094631 C 440.962892 123.807399 441.36162 121.88283 441.36162 119.324065 C 441.36162 118.288 440.962892 116.492155 440.159157 113.933389 C 439.358562 111.355786 438.316218 108.288407 437.025847 104.734392 C 435.757453 101.180376 434.360335 97.469381 432.837634 93.601407 C 431.333771 89.714595 429.858164 85.975344 428.413952 82.380513 C 426.966602 78.766846 425.657393 75.602139 424.486326 72.889534 C 423.334096 70.154951 422.524082 68.192708 422.056283 66.999664 L 422.056283 111.999402 C 422.056283 114.969454 422.417336 117.917529 423.139442 120.846766 C 423.861547 123.757165 424.897612 125.807317 426.244496 127.000361 Z M 426.244496 127.000361 " stroke="#ffffff" stroke-width="4.5" stroke-opacity="1" stroke-miterlimit="4"/></g><g clip-path="url(#0d0162fb87)"><path stroke-linecap="butt" transform="matrix(1.244191, 0, 0, 1.244191, 87.52339, -4.91899)" fill="none" stroke-linejoin="miter" d="M 285.856536 107.311995 C 288.415301 104.206941 290.895577 100.935488 293.297363 97.497638 C 295.699149 94.040949 297.780697 90.556005 299.535728 87.039664 C 301.607857 90.320536 304.18546 93.365938 307.271677 96.17901 C 310.357893 98.973245 313.754929 101.189795 317.465924 102.828661 C 321.195757 104.470666 325.104546 105.290099 329.186012 105.290099 C 332.134087 105.290099 334.909484 104.910209 337.505925 104.147288 C 340.102366 103.387508 342.221589 102.166207 343.863594 100.486527 C 345.50246 98.806846 346.325032 96.609134 346.325032 93.893389 C 346.325032 91.413113 345.260711 89.37238 343.13207 87.771189 C 341.022265 86.169998 338.246868 84.813695 334.809017 83.699141 C 331.374306 82.565749 327.59424 81.444916 323.471959 80.330361 C 319.352818 79.196969 315.211699 77.831248 311.051743 76.230057 C 306.891786 74.625727 303.092883 72.547319 299.655032 69.988553 C 296.217182 67.429788 293.432366 64.158335 291.303724 60.174196 C 289.193919 56.171219 288.142157 51.248342 288.142157 45.408706 C 288.142157 39.726048 289.479622 34.66503 292.154553 30.231929 C 294.829483 25.779991 298.424313 21.999925 302.935903 18.894871 C 307.466331 15.770979 312.52421 13.406868 318.11268 11.805678 C 323.716847 10.204487 329.487413 9.403892 335.424377 9.403892 C 343.100674 9.403892 349.55567 10.223325 354.792506 11.86219 C 360.026201 13.504196 364.380812 15.485277 367.856338 17.811713 C 371.353841 20.116172 374.301916 22.313884 376.703702 24.401711 C 374.694364 27.528743 372.465256 30.828451 370.025794 34.303977 C 367.583194 37.782642 365.328968 41.521894 363.256839 45.524871 C 359.818989 42.400979 355.778337 39.656978 351.128604 37.292867 C 346.500849 34.928756 341.461808 33.74827 336.01148 33.74827 C 333.452715 33.74827 330.856274 34.109323 328.219019 34.831428 C 325.581763 35.553534 323.355794 36.718322 321.537972 38.319512 C 319.742127 39.920703 318.844204 42.039926 318.844204 44.677181 C 318.844204 47.389787 319.858292 49.568662 321.889606 51.207528 C 323.942898 52.849533 326.664922 54.196417 330.065097 55.251319 C 333.462133 56.287384 337.204524 57.323448 341.285991 58.356373 C 345.367457 59.392438 349.430086 60.632576 353.473878 62.076787 C 357.51453 63.524138 361.234943 65.448706 364.635119 67.850493 C 368.032155 70.252279 370.7479 73.357333 372.779215 77.165655 C 374.829367 80.95514 375.856012 85.768131 375.856012 91.610907 C 375.856012 99.441044 373.774465 106.140928 369.614508 111.70742 C 365.454552 117.255075 359.790732 121.493521 352.623049 124.422758 C 345.474203 127.333158 337.418016 128.786788 328.454488 128.786788 C 323.415447 128.786788 318.511408 128.171428 313.745511 126.940709 C 308.998451 125.691153 304.662678 124.03031 300.738191 121.96132 C 296.813704 119.870353 293.55167 117.547057 290.95209 114.988291 C 288.355649 112.429526 286.657131 109.87076 285.856536 107.311995 Z M 285.856536 107.311995 " stroke="#ffffff" stroke-width="4.5" stroke-opacity="1" stroke-miterlimit="4"/></g><g clip-path="url(#e7fe6ef676)"><path stroke-linecap="butt" transform="matrix(1.244191, 0, 0, 1.244191, -346.601038, -4.91899)" fill="none" stroke-linejoin="miter" d="M 289.57335 127.000361 C 290.942211 125.807317 291.975136 123.757165 292.678404 120.846766 C 293.403649 117.917529 293.764702 114.969454 293.764702 111.999402 L 293.764702 26.188138 C 293.764702 23.161574 293.403649 20.213499 292.678404 17.340774 C 291.975136 14.452352 290.942211 12.39906 289.57335 11.190318 L 324.965944 11.190318 C 323.61592 12.39906 322.582995 14.430375 321.86089 17.284262 C 321.135645 20.116172 320.774592 23.045409 320.774592 26.071973 L 320.774592 104.206941 L 352.095138 104.206941 C 354.085638 104.206941 356.321026 104.031124 358.801302 103.67949 C 361.284717 103.309018 363.78383 102.643425 366.301781 101.68899 C 368.822872 100.731415 371.048841 99.324879 372.982828 97.469381 L 372.982828 127.000361 Z M 289.57335 127.000361 " stroke="#ffffff" stroke-width="4.5" stroke-opacity="1" stroke-miterlimit="4"/></g><path fill="#ffffff" d="M 587.867188 135.808594 C 590.402344 135.808594 592.0625 134.429688 592.0625 131.894531 C 592.0625 129.359375 590.402344 128.136719 587.804688 128.136719 L 583.765625 128.136719 L 583.765625 135.808594 Z M 580.164062 124.851562 L 588.023438 124.851562 C 592.71875 124.851562 595.722656 127.355469 595.722656 131.832031 C 595.722656 135.210938 593.84375 137.339844 591.183594 138.28125 L 596.316406 146.761719 L 592.125 146.761719 L 587.492188 139.03125 C 587.460938 139 586.332031 139.03125 586.300781 139.03125 L 583.765625 139.03125 L 583.765625 146.761719 L 580.164062 146.761719 L 580.164062 124.851562 " fill-opacity="1" fill-rule="nonzero"/><g clip-path="url(#c1abc0b742)"><path fill="#ffffff" d="M 587.539062 117.476562 C 585.0625 117.476562 582.664062 117.960938 580.40625 118.914062 C 578.226562 119.835938 576.265625 121.160156 574.585938 122.839844 C 572.902344 124.523438 571.582031 126.484375 570.65625 128.664062 C 569.703125 130.921875 569.21875 133.320312 569.21875 135.792969 C 569.21875 138.269531 569.703125 140.667969 570.65625 142.925781 C 571.582031 145.105469 572.902344 147.066406 574.585938 148.746094 C 576.265625 150.429688 578.226562 151.75 580.40625 152.675781 C 582.664062 153.628906 585.0625 154.113281 587.539062 154.113281 C 590.011719 154.113281 592.410156 153.628906 594.667969 152.675781 C 596.847656 151.75 598.808594 150.429688 600.492188 148.746094 C 602.171875 147.066406 603.496094 145.105469 604.417969 142.925781 C 605.371094 140.667969 605.855469 138.269531 605.855469 135.792969 C 605.855469 133.320312 605.371094 130.921875 604.417969 128.664062 C 603.496094 126.484375 602.171875 124.523438 600.492188 122.839844 C 598.808594 121.160156 596.847656 119.835938 594.667969 118.914062 C 592.410156 117.960938 590.011719 117.476562 587.539062 117.476562 Z M 587.539062 157.910156 C 584.550781 157.910156 581.65625 157.324219 578.929688 156.171875 C 576.292969 155.058594 573.929688 153.460938 571.898438 151.433594 C 569.871094 149.402344 568.273438 147.035156 567.160156 144.402344 C 566.007812 141.675781 565.421875 138.777344 565.421875 135.792969 C 565.421875 132.808594 566.007812 129.914062 567.160156 127.1875 C 568.273438 124.550781 569.871094 122.1875 571.898438 120.15625 C 573.929688 118.125 576.292969 116.53125 578.929688 115.417969 C 581.65625 114.265625 584.550781 113.679688 587.539062 113.679688 C 590.523438 113.679688 593.417969 114.265625 596.144531 115.417969 C 598.78125 116.53125 601.144531 118.125 603.175781 120.15625 C 605.207031 122.1875 606.800781 124.550781 607.914062 127.1875 C 609.066406 129.914062 609.652344 132.808594 609.652344 135.792969 C 609.652344 138.777344 609.066406 141.675781 607.914062 144.402344 C 606.800781 147.035156 605.207031 149.402344 603.175781 151.433594 C 601.144531 153.460938 598.78125 155.058594 596.144531 156.171875 C 593.417969 157.324219 590.523438 157.910156 587.539062 157.910156 " fill-opacity="1" fill-rule="nonzero"/></g></svg>